<svg xmlns="http://www.w3.org/2000/svg" id="Layer_2" viewBox="0 0 578.66 302.01"><style>.a{fill:#231F20;}.b{fill:#F05F7B;}.c{fill:#FA0;}.d{fill:#F1BFDD;}.e{fill:none;}.f{fill:#FFF;}</style><path d="M40.09 48.01h-0.77c-1.19 0-1.88-0.34-2.04-1.02l-2.04-9.45c-0.68-3.23-1.4-6.47-2.17-9.7 -0.77-3.23-1.7-6.17-2.81-8.81 -1.11-2.64-2.47-4.76-4.09-6.38 -1.62-1.62-3.54-2.43-5.75-2.43 -2.21 0-4.81 1.79-7.79 5.36 -2.98 3.58-4.9 8.6-5.75 15.07v0.26c0 1.36-0.04 2.68-0.13 3.96 -0.09 1.28-0.13 2.6-0.13 3.96 -0.17 2.39-0.26 4.68-0.26 6.9 0 2.21 0 4.43 0 6.64 0 1.36-0.04 2.73-0.13 4.09 -0.09 1.36-0.13 2.81-0.13 4.34V83c0 4.77-0.04 9.54-0.13 14.3 -0.09 4.77-0.13 9.54-0.13 14.3 0 6.98 0.08 13.88 0.26 20.69 0.17 6.81 0.42 13.45 0.77 19.92 0.17 3.75 0.34 7.28 0.51 10.6 0.17 3.32 0.59 6.77 1.28 10.34 1.02 6.47 2.64 10.94 4.85 13.41 2.21 2.47 4.51 3.7 6.9 3.7 2.38 0 5.06-1.19 8.04-3.58 2.98-2.38 5.15-6.04 6.51-10.98 0.51-1.19 0.85-2.89 1.02-5.11 0.17-2.21 0.34-4.51 0.51-6.9v-0.25c0.17-2.21 0.34-4.09 0.51-5.62 0.17-1.53 0.59-2.38 1.28-2.55 1.7 0 2.72 0.85 3.06 2.55 0.34 1.7 0.51 3.49 0.51 5.36 0 9.7-1.92 17.54-5.75 23.5 -3.83 5.96-8.9 8.94-15.19 8.94 -3.06 0-5.83-1.15-8.3-3.45 -2.47-2.3-4.53-5.53-6.19-9.7 -1.66-4.17-2.98-9.07-3.96-14.68 -0.98-5.62-1.47-11.75-1.47-18.39 0-4.6 0-9.19 0-13.79 0-4.6-0.09-9.19-0.26-13.79L0.26 85.3v-0.26C0.08 83.68 0 82.36 0 81.08s0-2.59 0-3.96c0-3.91 0.04-7.92 0.13-12 0.08-4.09 0.21-8.17 0.38-12.26 0.17-2.89 0.3-5.62 0.38-8.17 0.08-2.55 0.13-5.19 0.13-7.92C1.56 17.71 7.51 7.24 18.9 5.36h1.79c1.53 0 2.98 0.13 4.34 0.38 1.36 0.26 2.64 0.81 3.83 1.66 1.53 1.36 3.06 3.32 4.6 5.87s2.89 5.41 4.09 8.56c1.19 3.15 2.17 6.43 2.94 9.83 0.77 3.41 1.15 6.64 1.15 9.7 0 1.36-0.13 2.47-0.38 3.32C40.99 45.54 40.6 46.65 40.09 48.01z" class="a"/><path d="M113.51 92.06c0.26 5.2 0.38 10.18 0.38 14.94v21.45c0 3.92 0.04 8.39 0.13 13.41 0.08 5.02 0 10.09-0.26 15.2s-0.68 10.13-1.28 15.07c-0.6 4.94-1.62 9.32-3.06 13.15 -1.45 3.83-3.41 6.9-5.87 9.19 -2.47 2.3-5.58 3.45-9.32 3.45 -6.13 0-10.98-2.3-14.56-6.9s-6.34-10.34-8.3-17.24c-1.96-6.9-3.19-14.43-3.7-22.6 -0.51-8.17-0.77-15.92-0.77-23.24v-4.85c0-1.02-0.04-2.08-0.13-3.19 -0.09-1.1-0.13-2.17-0.13-3.19v-6.64c0-8.68 0.08-17.24 0.26-25.67 0.17-8.43 0.26-17.49 0.26-27.2v-6.64c0-3.74-0.04-7.45-0.13-11.11 -0.09-3.66-0.13-7.36-0.13-11.11v-9.7c0-0.51 0-1.28 0-2.3s0.04-2.04 0.12-3.06c0.08-1.02 0.29-1.92 0.61-2.68 0.33-0.77 0.81-1.15 1.47-1.15 0.81 0 1.63 0.3 2.45 0.9 0.81 0.6 1.23 1.07 1.23 1.4v2.81c0 7.67-0.09 15.26-0.26 22.76 -0.17 7.5-0.26 15.09-0.26 22.76v30.17c0 5.63 0.08 11.98 0.26 19.05 0.17 7.08 0.17 13.43 0 19.05v7.67c0 4.6 0.13 9.38 0.38 14.32 0.26 4.94 0.73 9.63 1.42 14.07 0.69 4.43 1.63 8.4 2.83 11.89 1.2 3.5 2.66 6.18 4.37 8.06l2.06 2.3c1.54 2.05 3.04 3.33 4.5 3.84 1.46 0.51 3.13 0.77 5.02 0.77 0.34 0 0.81 0 1.41 0s1.07-0.17 1.42-0.51l2.06-1.03c2.4-1.02 4.28-3.24 5.65-6.65 1.37-3.41 2.4-7.41 3.09-12.02 0.69-4.6 1.11-9.5 1.28-14.7s0.26-10.27 0.26-15.22V81.31c0-3.92-0.04-7.8-0.13-11.64 -0.09-3.83-0.13-7.71-0.13-11.64V54.2c0-1.36 0.04-2.6 0.13-3.71 0.08-1.11 0.13-2.17 0.13-3.2V40.9c0-1.36-0.04-2.81-0.13-4.35 -0.09-1.53-0.22-3.41-0.38-5.63v-1.79c-0.17-1.53-0.3-3.02-0.38-4.47 -0.09-1.45-0.13-3.02-0.13-4.73 0-0.85 0-1.57 0-2.17 0-0.6 0.08-1.32 0.26-2.17v-0.26c0-0.34 0.13-1.15 0.38-2.43s0.47-1.92 0.64-1.92l1.02-0.26c1.53 0 2.55 1.49 3.06 4.47 0.51 2.98 0.77 6.17 0.77 9.58 0 1.36-0.04 2.73-0.13 4.09 -0.09 1.36-0.13 2.73-0.13 4.09v43.67C113.13 81.72 113.26 86.87 113.51 92.06z" class="a"/><path d="M163.56 8.94c2.74 0.68 5.27 1.79 7.59 3.32s4.25 3.83 5.79 6.9c1.54 3.06 2.74 7.07 3.6 12 0.86 4.94 1.29 11.15 1.29 18.64v2.81c0 1.02-0.04 2.81-0.13 5.36 -0.09 2.55-0.13 7.24-0.13 14.05v7.41c0 8.52-0.86 15.58-2.57 21.2s-3.86 10.13-6.43 13.54c-2.57 3.41-5.32 5.79-8.23 7.15 -2.91 1.36-5.66 2.04-8.23 2.04 -2.06 0-5.57-0.68-10.55-2.04v36.01c0.17 1.88 0.26 3.75 0.26 5.62 0 1.88 0 3.75 0 5.62v11.75l-0.26 12 -1.02 1.02c-0.85 0-1.75-0.22-2.68-0.64 -0.94-0.42-1.4-1.15-1.4-2.17l-0.51-36.01c0-2.38-0.09-4.47-0.26-6.26 -0.17-1.79-0.26-3.62-0.26-5.49 0-0.85 0.04-1.62 0.13-2.3 0.08-0.68 0.13-1.44 0.13-2.3v-11.49c0-6.98-0.09-15.28-0.26-24.9 -0.17-9.62-0.26-20.3-0.26-32.05 0-4.25 0.04-8.43 0.13-12.51 0.08-4.09 0.13-8.08 0.13-12V27.07c0-1.53-0.04-3.15-0.13-4.85 -0.09-1.7-0.13-3.23-0.13-4.6v-6.9c0.17-0.51 0.85-0.81 2.04-0.89 1.19-0.08 2.3-0.13 3.32-0.13h2.3c1.37 0 3.17-0.21 5.4-0.64 2.23-0.42 4.29-0.64 6.17-0.64 1.03 0 1.93 0.04 2.7 0.13C161.88 8.64 162.7 8.77 163.56 8.94zM144.79 79.17c-0.17 4.6-0.13 9.15 0.13 13.66 0.26 4.51 0.47 8.9 0.64 13.15l0.26 8.43c3.4 2.21 6.47 3.32 9.19 3.32 4.6 0 8.21-1.36 10.85-4.09 2.64-2.72 4.68-6.21 6.13-10.47 1.44-4.25 2.38-9.02 2.81-14.3 0.42-5.27 0.64-10.38 0.64-15.32v-2.04c0-1.19 0-2.59 0-4.21 0-1.62 0.04-3.19 0.13-4.72 0.08-1.53 0.21-3.23 0.38-5.11v-1.79c0-14.13-1.02-24.64-3.06-31.54s-6.56-10.34-13.54-10.34c-0.85 0-1.83 0.09-2.94 0.26 -1.11 0.17-2.17 0.26-3.19 0.26l-8.43 1.02V79.17z" class="a"/><path d="M419.31 8.43c0.34-1.7 1.11-2.59 2.3-2.68 1.19-0.08 2.13 0.73 2.81 2.43v0.26c1.87 4.09 3.23 8.98 4.09 14.68 0.85 5.71 1.7 11.36 2.55 16.98l1.79 10.98v0.26c0.85 4.94 1.49 9.79 1.92 14.56 0.42 4.77 0.81 9.62 1.15 14.56 0.34 4.43 0.68 8.81 1.02 13.15 0.34 4.34 0.85 8.81 1.53 13.41v0.26c0.51 3.06 0.89 5.96 1.15 8.68 0.26 2.73 0.55 5.53 0.89 8.43l1.02 11.49 7.15 56.44 -1.02 1.02v1.02c0.17-0.51-0.26-0.77-1.28-0.77s-1.49-0.04-1.4-0.13c0.08-0.09 0.13-0.22 0.13-0.38v-0.25l-1.02-1.28c-1.88-11.24-3.58-22.38-5.11-33.46 -1.53-11.06-2.98-23.15-4.34-36.26l-0.51-2.55c-0.34 0-1.15 0-2.43 0 -1.28 0-2.72-0.04-4.34-0.13 -1.62-0.08-3.11-0.13-4.47-0.13 -1.37 0-2.13 0-2.3 0 -1.19 0-2.77-0.08-4.72-0.26 -1.96-0.17-3.54-0.08-4.72 0.26l-0.25 3.06c-0.34 4.94-0.77 9.75-1.28 14.43 -0.51 4.68-1.02 9.41-1.53 14.17 -0.34 1.88-0.55 3.75-0.64 5.62 -0.09 1.88-0.21 3.75-0.38 5.62v0.25c0 0.85-0.09 1.75-0.25 2.68 -0.17 0.94-0.26 1.83-0.26 2.68 -0.34 3.92-0.77 7.79-1.28 11.62s-0.94 7.79-1.28 11.88v0.25c0 2.38-0.94 3.83-2.81 4.34 -0.85-0.17-1.62-0.51-2.3-1.02 -0.68-0.51-1.02-1.45-1.02-2.81l0.26-0.77c2.38-16.51 4.38-32.9 6-49.16 1.62-16.26 3.1-33.75 4.47-52.48 0.17-2.38 0.47-5.32 0.89-8.81 0.42-3.49 0.81-6.77 1.15-9.83l1.02-8.17c0.85-9.87 1.92-19.11 3.19-27.71C416.12 26.26 417.61 17.45 419.31 8.43zM419.06 44.18c-1.19 10.21-2.34 20.43-3.45 30.65 -1.11 10.21-2.17 20.69-3.19 31.41l-0.51 7.66c1.36 0.34 2.94 0.43 4.72 0.26 1.79-0.17 3.19-0.26 4.21-0.26 2.38 0 4.64 0.13 6.77 0.38 2.13 0.26 4.21 0.13 6.26-0.38l-1.02-9.96v-0.26c-0.51-6.47-1.07-13.06-1.66-19.79 -0.6-6.72-1.24-13.32-1.92-19.79 -0.34-3.74-0.73-7.87-1.15-12.39 -0.43-4.51-0.94-8.98-1.53-13.41 -0.6-4.43-1.24-8.64-1.92-12.64 -0.68-4-1.45-7.45-2.3-10.34 -0.34 1.53-0.68 3.49-1.02 5.87 -0.34 2.39-0.68 4.9-1.02 7.53 -0.34 2.64-0.6 5.32-0.77 8.04C419.4 39.5 419.22 41.97 419.06 44.18z" class="a"/><path d="M519.16 4.34c-1.53 1.36-3.24 3.49-5.11 6.38 -1.88 2.9-3.75 6.3-5.62 10.21 -1.88 3.92-3.7 8.09-5.49 12.51 -1.79 4.43-3.54 8.77-5.24 13.02 -1.88 4.6-3.7 9.07-5.49 13.41 -1.79 4.34-3.79 8.73-6 13.15v1.79c1.7 9.54 3.61 17.37 5.75 23.49 2.13 6.13 4.3 12.09 6.51 17.88 1.7 4.26 3.49 8.94 5.36 14.05 1.87 5.11 3.49 10.3 4.85 15.58 3.06 10.9 5.7 20.81 7.92 29.75 2.21 8.94 3.32 15.28 3.32 19.03 -0.17-0.17-0.94-0.26-2.3-0.26 -0.34 0-0.68 0.17-1.02 0.51 -0.34 0.34-0.51 0.59-0.51 0.77v-0.51c-1.88-6.64-3.75-13.24-5.62-19.79 -1.88-6.55-3.66-13.49-5.36-20.81 -1.36-5.79-3.02-11.62-4.98-17.49 -1.96-5.87-3.79-11.02-5.49-15.45 -2.39-6.13-4.68-12.39-6.89-18.77 -2.21-6.38-4.26-13.32-6.13-20.81V80.7c-0.85 0.85-1.66 2.09-2.43 3.7 -0.77 1.62-2 4.21-3.7 7.79v0.77c0 1.88 0.04 3.79 0.13 5.75 0.08 1.96 0.13 3.87 0.13 5.75 -0.17 3.75-0.3 7.15-0.38 10.22 -0.09 3.06-0.13 6.22-0.13 9.45v5.36c0 2.9 0.04 5.49 0.13 7.79 0.08 2.3 0.13 4.64 0.13 7.02 0.17 2.39 0.26 5.45 0.26 9.19 0 3.75 0 7.92 0 12.51 0 1.02 0 2.26 0 3.7 0 1.45 0.08 2.94 0.25 4.47 0.17 2.39 0.3 5.23 0.38 8.55 0.08 3.32 0.13 6.86 0.13 10.6 0 0.17-0.43 0.51-1.28 1.02 -1.02-0.17-2-0.34-2.94-0.51 -0.94-0.17-1.49-0.43-1.66-0.77 0.17-2.55 0.25-4.64 0.25-6.26 0-1.62 0-3.28 0-4.98 0-2.55-0.04-5.11-0.13-7.66 -0.09-2.55-0.21-5.02-0.38-7.41 -0.17-2.21-0.3-4.76-0.38-7.66 -0.09-2.89-0.17-6.47-0.26-10.73 -0.09-4.25-0.17-9.23-0.25-14.94 -0.09-5.7-0.13-12.47-0.13-20.3 0-2.55 0.08-5.7 0.26-9.45 0.17-3.74 0.08-6.98-0.26-9.7l-0.25-31.92c-0.17-3.23-0.22-6.55-0.13-9.96 0.08-3.4 0.13-6.9 0.13-10.47V30.13c0-5.62 0-10.89 0-15.83 0-4.94-0.17-9.7-0.51-14.3h2.3c1.53 0 2.47 0.68 2.81 2.04 0 2.39 0.04 4.77 0.13 7.15 0.08 2.39 0.13 5.02 0.13 7.92 0 4.6 0.04 9.58 0.13 14.94 0.08 5.36 0.13 10.77 0.13 16.22 0 5.45 0.04 10.77 0.13 15.96 0.08 5.2 0.21 9.92 0.38 14.17v2.3c5.28-8.68 10.47-18.77 15.58-30.26 5.11-11.49 10.04-22.68 14.81-33.58l4.09-9.45c1.02-1.87 2.21-3.45 3.58-4.72 1.36-1.28 2.98-2 4.85-2.17 1.02 1.02 1.53 1.96 1.53 2.81V4.34z" class="a"/><path d="M570.24 8.17c0.85 0 1.92 0.04 3.19 0.13 1.28 0.09 2.43 0.22 3.45 0.38 1.02 0.68 1.49 1.19 1.4 1.53 -0.09 0.34 0.04 1.02 0.38 2.04 0 0.85-0.85 1.28-2.55 1.28 -2.21 0-4.3-0.17-6.26-0.51 -1.96-0.34-3.88-0.51-5.75-0.51 -2.9 0-5.75 0.04-8.56 0.13 -2.81 0.09-5.75 0.3-8.81 0.64v3.06c0 12.26-0.13 24.48-0.38 36.65 -0.25 12.17-0.38 24.39-0.38 36.65l-0.51 3.32c2.21 0 4.68 0.09 7.41 0.26 2.72 0.17 5.28 0.26 7.66 0.26h2.55c1.7 0 2.72 1.02 3.06 3.06v0.51c0 0.34-0.77 0.6-2.3 0.77h-3.58c-0.85-0.17-1.66-0.26-2.43-0.26 -0.77 0-1.58 0-2.43 0 -1.36 0-2.94 0.04-4.72 0.13 -1.79 0.09-3.36 0.22-4.72 0.38v2.3c-0.17 2.39-0.26 4.77-0.26 7.15 0 2.39 0 4.85 0 7.41v9.7c0 1.7 0.04 3.41 0.13 5.11 0.08 1.7 0.13 3.49 0.13 5.36v3.06l-0.26 21.45c0 0.68 0.04 1.75 0.13 3.19 0.08 1.45 0.13 4.72 0.13 9.83v15.83c1.35 0.34 3.03 0.55 5.06 0.64 2.02 0.09 3.79 0.13 5.31 0.13 1.86 0 3.71-0.21 5.57-0.64 1.86-0.42 3.88-0.64 6.07-0.64 1.52 0 2.74 0.34 3.67 1.02 0.93 0.68 1.39 1.96 1.39 3.83v0.25l-5.11-0.25c-0.85 0-1.79 0.04-2.81 0.13 -1.02 0.08-2.3 0.17-3.83 0.26 -1.53 0.08-3.36 0.17-5.49 0.26 -2.13 0.08-4.72 0.04-7.79-0.13h-2.3 -1.02c-1.02 0-1.88-0.34-2.55-1.02 -0.68-0.68-1.02-2.72-1.02-6.13 0.34-5.28 0.42-10.89 0.26-16.85 -0.17-5.96-0.26-12.34-0.26-19.15 0-4.76-0.04-9.62-0.13-14.56 -0.09-4.94-0.13-9.87-0.13-14.81V99.34c0-4.76 0.04-8.89 0.13-12.39 0.08-3.49 0.17-6.68 0.26-9.58 0.08-2.89 0.17-5.66 0.25-8.3 0.08-2.64 0.13-5.57 0.13-8.81v-5.62c0-5.27 0.04-9.49 0.13-12.64 0.08-3.15 0.04-6-0.13-8.56V33.2c-0.17-2.38-0.3-4.89-0.38-7.53 -0.09-2.64-0.13-5.91-0.13-9.83v-1.28c0-0.51-0.09-1.1-0.25-1.79 -0.17-0.68-0.17-1.36 0-2.04 0.17-0.68 0.61-1.23 1.32-1.66 0.71-0.42 1.87-0.64 3.48-0.64 0.88 0 1.75 0.04 2.6 0.13 0.85 0.09 1.79 0.13 2.81 0.13h3.83c3.74 0 6.9-0.08 9.45-0.26C566.92 8.26 568.87 8.17 570.24 8.17z" class="a"/><path d="M321.73 272.08c-0.6 4.72-2.17 10.18-4.86 13.51 -2.34 2.91-6.62 6.29-9.71 7.81 -2.82 1.39-6.46 2-9.71 1.69 -5.93-0.57-12.87-2-17.53-5.7 -1.58-1.25-3.52-3.22-4.43-4.43 -1.3-1.72-2.06-4.85-2.96-7.81 -1.16-3.86-2.33-8.69-0.64-12.67 0.27-0.62 0.84-1.45 1.27-2.33 1.2-2.47 1.89-3.49 4.44-5.48 5.21-4.09 12.74-9.31 20.27-9.51 2.7-0.07 6.9 0.55 9.29 1.27 0.83 0.25 1.27 0.48 1.69 1.06 0.69-0.02 0.8-0.6 1.69-0.42 1.74 0.78 2.06 2.01 3.38 3.59 0.6 0.72 1.5 1.02 1.9 1.69 0.68 1.15 0.77 2.77 2.32 3.17C320.03 261.59 322.51 266.02 321.73 272.08z" class="b"/><path d="M349.84 207.02c-1.67 0.93-3.66 4.81-4.46 6.14 -2.9 4.79-6.1 9.16-9.08 13.72 -1.97 3.02-4.19 6.01-6.34 8.87 -2.24 2.99-3.97 6.29-6.55 8.87 -1.75 3.25-3.74 6.26-5.91 9.08 -1.59-1.19-2.33-3.06-3.8-4.44 -2.11-1.97-5.59-2-7.6-4.22 6.86-10.87 15.34-20.76 21.12-32.31 2.17-4.33 4.9-8.38 6.97-12.88 2.55-2.27 5.34-6.13 8.23-8.66 1.82-1.6 5.18-4.88 7.6-2.54 -1.03 1.34-4.47 0.48-5.29 2.54 -0.95 3.73 1.09 6.9 4.86 7.18C349.51 201.21 349.61 204.15 349.84 207.02c0.1-0.05 0.2-0.13 0.29-0.17 0.08 0.12 0.12 0.27 0.14 0.43C350.21 207.17 350.08 207.08 349.84 207.02z" class="b"/><path d="M386.35 256.87c2.39 2.13 2.93 4.66 4.44 7.61 1.24 2.41 3.16 6.1 2.75 9.71 -0.31 2.71-2.61 7.48-4.22 9.08 -3.21 3.17-11.5 7.23-17.95 7.39 -1.98 0.05-4.77-0.53-6.76-1.05 -9.58-2.51-18.52-12.22-12.04-23.65 0.6-1.05 2.02-2.65 3.38-4.23 4.11-4.8 7.22-8.43 16.47-8.45C376.8 253.28 382.45 253.39 386.35 256.87z" class="c"/><path d="M370.93 227.1c1.54 8.25 3.76 16.54 4.23 24.5 -4.53 0.18-10.43 0.08-13.31 2.32 -1.77-5.45-4.11-13.57-5.07-22.38 -0.54-4.99-1.13-10.74-2.11-16.68 -1.27-7.71-2.91-14.92-1.69-23.65 0.42-3 1.03-7.72 4.44-7.18 1.26 0.2 1.79 1.73 3.16 2.11 0.12 2.15 1.77 3.84 1.69 5.48 -1.92 0.86-2.93-2.24-5.27-2.32 -3.78 1.62-3.73 8.92 0.63 9.29 1.72 0.15 3.88-1.29 4.44-2.74 0.39-1.03-0.41-2.32 0.63-2.95 2.07 2.86 3.7 6.16 5.91 8.87 0.21 0.77-0.95 0.18-0.84 0.84C369.66 210.56 369.37 218.71 370.93 227.1z" class="c"/><path d="M397.54 236.6c-0.66 0.1-0.48-0.65-1.26-0.42 -1.87-3.28-5.85-6.26-8.03-9.93 -2.91-3.43-5.65-7.02-8.03-10.98 -4.09-5.55-8.47-11.94-12.03-17.32 -3.3-2.05-3.73-6.97-5.92-10.13 0.24-1.55-0.81-2.98-0.21-4.64 1.31-1.23 5.76-2.85 6.97-0.43 -2.06 0-5.33 1.07-5.7 4.02 1.15 2.95 3.82 6.76 7.39 4.22 1.91-2.44 1.7-5.57-0.42-7.61 3.27 2.92 6.25 6.14 9.71 8.88 10.84 12.11 23.25 22.64 32.1 36.74 -2.07 0.41-3.04 2.36-4.44 3.8 -0.92 0.95-2.1 1.44-3.16 2.33 -1.7 1.41-2.37 3.86-4.22 5.06C399.32 239.04 398.3 237.95 397.54 236.6z" class="d"/><path d="M405.36 236.18c2.39-2.12 5.03-4.16 7.39-6.12 1.21 0.79 2.2-0.16 3.59-0.42 4.32-0.82 9.35-0.23 12.88 1.48 3.18 3.93 7.59 9.27 9.5 14.57 1.58 4.35-1.13 8.42-3.38 11.61 -1.5 2.14-2.62 4.52-4.22 5.91 -7.78 6.79-19.81 0.77-25.34-5.07 -0.97-2.48-3.16-4.47-4.02-7.18 -0.46-1.48-0.05-3.13-1.05-4.44C400.65 241.9 402.79 238.45 405.36 236.18z" class="d"/><path d="M361.02 172.92c0.96-0.89 1.91-1.77 2.85-2.63 7.45-6.78 12.64-12.65 15.85-17.95 -1.07-1.23-2.2-1.84-3.46-1.86 -1.38-0.01-2.98 0.67-4.78 2.05l-0.53 0.74c-2.31 3.23-6.6 9.25-13.62 15.22 -5.1 4.34-11.05 8.28-17.71 11.71 -0.72 0.37-1.44 0.75-2.17 1.13 -5.11 2.67-10.89 5.71-17.46 7.27 -6.57 1.57-14.06 1.57-21.31 1.57 -8.76 0-16.42-0.88-23.42-2.69 -7.82-2.02-15.19-4.99-21.91-8.81 -7.7-4.38-13.91-9-19-14.12 -5.86-5.89-10.21-13.04-13.7-19.25 -3.91-6.97-7.58-13.87-9.54-21.65 -1.65-6.57-2.42-14.06-2.42-23.58 0-7.64 0.99-15.3 3.04-23.42 2.32-9.22 4.95-16.26 8.27-22.18 3.97-7.07 9.6-12.73 15.04-18.21 4.61-4.64 10.86-10.5 18.34-14.76 6.81-3.88 14.17-6.85 21.89-8.85 7.73-2 15.83-2.28 23.42-2.28 7.48 0.05 14.73 0.22 21.28 1.88 7 1.77 14.31 3.86 20.35 7.09 5.92 3.17 11.87 7.33 17.69 12.38 6.55 5.68 10.85 11.72 13.42 15.33l0.52 0.73c0.97 0.32 1.85 0.69 2.63 1.03 2.43 1.04 3.74 1.6 5.28-0.08 -4.01-6.06-10.22-12.03-16.25-17.62 -6.56-6.08-12.64-10.6-19.14-14.21l-0.6-0.33c-6.61-3.67-13.44-7.47-21.28-9.51 -7.09-1.85-14.7-2.04-23.91-2.1 -1.49 0-2.98-0.02-4.47-0.03 -1.51-0.02-3-0.03-4.48-0.03 -5.65 0-11.05 0.23-16.24 1.55 -7.58 1.93-14.49 5.83-21.18 9.6l-1.74 0.98c-6.58 3.69-12.83 8.57-19.67 15.37 -6.1 6.06-11.07 12.52-15.17 19.75l-1.27 2.22c-3.69 6.45-7.5 13.11-9.39 20.56 -1.61 6.34-1.52 13.06-1.43 20.16 0.02 1.65 0.04 3.3 0.04 4.96 0 1.8-0.03 3.59-0.06 5.37 -0.11 6.97-0.22 13.56 1.36 19.78 1.76 6.93 5.36 13.12 8.84 19.11 0.69 1.19 1.38 2.38 2.06 3.56l1.17 2.08c3.71 6.59 7.55 13.41 12.89 18.71 5.7 5.66 12.46 9.64 20.7 14.27 8.53 4.79 15.87 7.87 23.09 9.71 8.38 2.13 17.31 2.42 24.94 2.42 7.42 0 15.98-0.16 23.73-2.08 7.72-1.91 15.83-4.08 22.74-7.75C351.26 182 356.22 177.39 361.02 172.92z" class="a"/><path d="M365.66 185.07c-0.14 1.33-0.5 3.04 0.63 3.59 0.98-1.21 1.52-2.84 2.32-4.23C367.57 183.83 366.36 184.65 365.66 185.07z" class="e"/><path d="M349.61 193.52c-1.13-0.42-2.32-0.77-3.38-1.27 -0.66 2.37 0.5 4.08 3.16 4.22C349.82 195.85 349.52 194.48 349.61 193.52z" class="e"/><path d="M277.6 256.66c-2.55 1.99-3.23 3.02-4.44 5.48 -0.43 0.88-1 1.7-1.27 2.33 -1.69 3.98-0.53 8.81 0.64 12.67 0.89 2.96 1.65 6.09 2.96 7.81 0.91 1.21 2.85 3.18 4.43 4.43 4.66 3.7 11.6 5.14 17.53 5.7 3.26 0.31 6.89-0.3 9.71-1.69 3.09-1.52 7.37-4.9 9.71-7.81 2.68-3.34 4.25-8.79 4.86-13.51 0.78-6.05-1.7-10.48-3.59-14.57 -1.55-0.4-1.64-2.02-2.32-3.17 -0.39-0.67-1.3-0.96-1.9-1.69 -1.32-1.58-1.64-2.8-3.38-3.59 -0.89-0.18-1 0.41-1.69 0.42 -0.42-0.58-0.86-0.81-1.69-1.06 -2.39-0.71-6.59-1.34-9.29-1.27C290.34 247.35 282.82 252.57 277.6 256.66z" class="e"/><path d="M352.78 216.75c0.98 5.52 0.82 11.37 2.74 16.68 -0.95-9.95-2.14-20.36-4.22-28.72C351.38 209.63 352.13 213.15 352.78 216.75z" class="e"/><path d="M352.36 186.76c-1.09 2.05-1.84 5.45-1.06 7.18C351.08 191.52 352.45 188.16 352.36 186.76z" class="e"/><path d="M360.38 184.23c0.33-3.79 4.95-4.29 8.87-3.8 0.33-3.77-0.54-6.95-2.11-9.29 -0.21-0.31-0.72-0.25-1.06-0.63 -0.36-0.41-0.34-1-0.63-1.27 -5.19-4.65-17.88-4.27-23.02 0.84 -4.14 5.08-2.99 13.19 0.63 18.16 1.73-1.25 4.89-3.15 7.6-1.48C351.41 182.31 357.47 181.53 360.38 184.23z" class="e"/><path d="M349.18 191.62c-0.01-0.29 0.1-0.46 0.21-0.63 -1.02-0.14-0.76-0.45-1.9-0.21C347.52 191.6 348.64 191.32 349.18 191.62z" class="e"/><path d="M349.61 198.37c-3.77-0.28-5.81-3.44-4.86-7.18 0.81-2.05 4.26-1.19 5.29-2.54 -2.43-2.34-5.79 0.94-7.6 2.54 -2.89 2.53-5.68 6.39-8.23 8.66 -2.07 4.5-4.8 8.55-6.97 12.88 -5.78 11.55-14.25 21.45-21.12 32.31 2.01 2.22 5.49 2.25 7.6 4.22 1.47 1.38 2.21 3.25 3.8 4.44 2.18-2.82 4.16-5.83 5.91-9.08 2.58-2.58 4.31-5.88 6.55-8.87 2.14-2.86 4.37-5.85 6.34-8.87 2.98-4.56 6.18-8.94 9.08-13.72 0.8-1.32 2.79-5.21 4.46-6.14C349.61 204.15 349.51 201.21 349.61 198.37z" class="e"/><path d="M298.29 296.78c-3.27-0.36-8.01-0.66-10.14-1.27 -5.36-1.52-11.86-5.93-14.78-11.2 -2.15-3.88-3.58-9.12-3.8-13.93 -0.19-4.14 1.34-7.65 2.96-10.77 1.23-2.38 4.8-4.82 7.81-6.97 5.9-4.19 11.3-6.32 18.59-7.39 1.77 0.64 3.62 1.27 5.28 1.05 -4.41-1.52-9.57-2.19-15.21-1.05 -6.58 1.33-13.45 5.04-17.11 9.29 -1.98 2.3-4.51 7.26-5.28 10.14 -2.79 10.45 1.99 20.77 8.45 28.51 2.73 1.24 5.59 2.72 8.45 3.8 3.45 1.3 7.74 1.76 10.55 3.38 9.04 0.66 16.09-3.75 20.7-8.87 0.54-0.27-0.2-1.04 0.21-1.06 1.13-0.7 3.28-3.99 2.75-3.59C312.42 291.73 306.5 297.69 298.29 296.78z" class="e"/><path d="M350.13 206.85c-0.09 0.04-0.19 0.11-0.29 0.17 0.04 0.52 0.11 1.02 0.16 1.54C350.29 207.86 350.41 207.24 350.13 206.85z" class="e"/><path d="M322.58 272.49c-0.1 3.78-1.51 7.36-1.9 10.14C321.77 279.94 323.75 276.07 322.58 272.49z" class="e"/><path d="M366.71 189.72c2.35 2.84 5.76-2.59 2.96-4.22C368.73 186.94 368.14 188.76 366.71 189.72z" class="e"/><path d="M357.42 197.32c1.1-0.52 3.8-1.45 2.53-2.95 -1.18 0.53-2.61 1.38-3.8 1.27C356.24 196.53 357.28 196.47 357.42 197.32z" class="e"/><path d="M404.51 235.12c1.06-0.89 2.24-1.38 3.16-2.33 1.4-1.43 2.36-3.39 4.44-3.8 -8.85-14.1-21.26-24.63-32.1-36.74 -3.46-2.73-6.44-5.95-9.71-8.88 2.12 2.04 2.33 5.17 0.42 7.61 -3.57 2.54-6.24-1.28-7.39-4.22 0.37-2.95 3.64-4.02 5.7-4.02 -1.21-2.42-5.66-0.8-6.97 0.43 -0.61 1.66 0.45 3.09 0.21 4.64 2.19 3.16 2.61 8.09 5.92 10.13 3.56 5.38 7.94 11.77 12.03 17.32 2.38 3.96 5.12 7.55 8.03 10.98 2.18 3.66 6.16 6.64 8.03 9.93 0.79-0.23 0.6 0.52 1.26 0.42 0.76 1.35 1.79 2.44 2.75 3.59C402.14 238.98 402.81 236.54 404.51 235.12z" class="e"/><path d="M355.94 193.73c1.51 0.03 2.73-0.22 3.59-0.84C358.85 190.72 355.65 190.8 355.94 193.73z" class="e"/><path d="M405.78 258.14c5.53 5.84 17.56 11.85 25.34 5.07 1.6-1.39 2.72-3.78 4.22-5.91 2.25-3.19 4.96-7.26 3.38-11.61 -1.91-5.3-6.33-10.64-9.5-14.57 -3.53-1.71-8.55-2.3-12.88-1.48 -1.39 0.27-2.38 1.21-3.59 0.42 -2.36 1.96-5 4-7.39 6.12 -2.57 2.27-4.7 5.72-4.64 10.34 0.99 1.31 0.59 2.96 1.05 4.44C402.62 253.67 404.81 255.65 405.78 258.14z" class="e"/><path d="M434.5 235.12c2.52 5.01 7.53 10.34 5.28 17.52 -4.77 5.31-6.46 13.66-15.2 14.57 -11.18 1.17-18.56-6.27-23.23-13.52 0.35 1.85 0.88 4 2.11 5.7 2.78 3.83 6.27 8.07 10.14 9.71 5.32 2.26 10.77 0.32 14.57-1.47 0.87-0.41 1.88-0.5 2.53-0.85 2.89-1.51 4.16-3.71 6.12-5.91 2.31-2.59 4.18-4.59 4.64-8.45C442.25 245.94 439.59 238.9 434.5 235.12z" class="e"/><path d="M363.76 291.08c-8.81-2.41-16.02-10.36-14.57-19.84 0.23-1.54 1.23-3.24 1.27-4.65 -2.33 4.1-4.91 9.02-4.02 15.62 0.58 4.27 4.12 9.37 6.97 11.19 2.61 1.68 7.57 3.23 11.4 3.8 6.34 0.95 12.32-0.38 17.11-2.95 1.97-2.33 4.91-4.8 5.5-7.81C381.39 290.72 372.93 293.65 363.76 291.08z" class="e"/><path d="M359.95 254.33c-0.52-4.08-1.81-9.06-2.95-12.67C357.82 245.55 356.54 252.74 359.95 254.33z" class="e"/><path d="M354.25 261.52c0.47-1.08 2.09-2.13 2.11-2.96C355.72 259.46 354.05 260.47 354.25 261.52z" class="e"/><path d="M368.61 201.76c-2.21-2.71-3.84-6.01-5.91-8.87 -1.04 0.63-0.24 1.92-0.63 2.95 -0.55 1.45-2.72 2.89-4.44 2.74 -4.36-0.37-4.41-7.67-0.63-9.29 2.34 0.08 3.35 3.18 5.27 2.32 0.08-1.65-1.57-3.34-1.69-5.48 -1.38-0.38-1.9-1.91-3.16-2.11 -3.4-0.54-4.02 4.18-4.44 7.18 -1.22 8.73 0.42 15.94 1.69 23.65 0.98 5.94 1.57 11.69 2.11 16.68 0.95 8.81 3.3 16.93 5.07 22.38 2.87-2.24 8.78-2.14 13.31-2.32 -0.46-7.95-2.69-16.24-4.23-24.5 -1.56-8.39-1.28-16.54-3.16-24.5C367.66 201.93 368.82 202.52 368.61 201.76z" class="e"/><path d="M357.85 257.08c0.46-0.66 2.19-1.18 1.89-1.9C358.92 255.62 358.33 256.3 357.85 257.08z" class="e"/><path d="M355.94 261.72c-1.36 1.58-2.78 3.18-3.38 4.23 -6.48 11.43 2.45 21.14 12.04 23.65 1.99 0.52 4.79 1.11 6.76 1.05 6.45-0.16 14.74-4.22 17.95-7.39 1.61-1.59 3.91-6.37 4.22-9.08 0.41-3.61-1.51-7.3-2.75-9.71 -1.51-2.95-2.05-5.47-4.44-7.61 -3.89-3.48-9.55-3.59-13.93-3.59C363.16 253.29 360.05 256.93 355.94 261.72z" class="e"/><path d="M315.82 254.33c-0.39-0.67-1.3-0.96-1.9-1.69 -1.32-1.58-1.64-2.8-3.38-3.59 -0.89-0.18-1 0.41-1.69 0.42 -0.42-0.58-0.86-0.81-1.69-1.06 -2.39-0.71-6.59-1.34-9.29-1.27 -7.52 0.2-15.05 5.41-20.27 9.51 -2.55 1.99-3.23 3.02-4.44 5.48 -0.43 0.88-1 1.7-1.27 2.33 -1.69 3.98-0.53 8.81 0.64 12.67 0.89 2.96 1.65 6.09 2.96 7.81 0.91 1.21 2.85 3.18 4.43 4.43 4.66 3.7 11.6 5.14 17.53 5.7 3.26 0.31 6.89-0.3 9.71-1.69 3.09-1.52 7.37-4.9 9.71-7.81 2.68-3.34 4.25-8.79 4.86-13.51 0.78-6.05-1.7-10.48-3.59-14.57C316.59 257.1 316.5 255.49 315.82 254.33z" class="e"/><path d="M349.61 198.37c-3.77-0.28-5.81-3.44-4.86-7.18 0.81-2.05 4.26-1.19 5.29-2.54 -2.43-2.34-5.79 0.94-7.6 2.54 -2.89 2.53-5.68 6.39-8.23 8.66 -2.07 4.5-4.8 8.55-6.97 12.88 -5.78 11.55-14.25 21.45-21.12 32.31 2.01 2.22 5.49 2.25 7.6 4.22 1.47 1.38 2.21 3.25 3.8 4.44 2.18-2.82 4.16-5.83 5.91-9.08 2.58-2.58 4.31-5.88 6.55-8.87 2.14-2.86 4.37-5.85 6.34-8.87 2.98-4.56 6.18-8.94 9.08-13.72 0.8-1.32 2.79-5.21 4.46-6.14C349.61 204.15 349.51 201.21 349.61 198.37z" class="e"/><path d="M352.36 186.76c-1.09 2.05-1.84 5.45-1.06 7.18C351.08 191.52 352.45 188.16 352.36 186.76z" class="e"/><path d="M360.38 184.23c0.33-3.79 4.95-4.29 8.87-3.8 0.33-3.77-0.54-6.95-2.11-9.29 -0.21-0.31-0.72-0.25-1.06-0.63 -0.36-0.41-0.34-1-0.63-1.27 -5.19-4.65-17.88-4.27-23.02 0.84 -4.14 5.08-2.99 13.19 0.63 18.16 1.73-1.25 4.89-3.15 7.6-1.48C351.41 182.31 357.47 181.53 360.38 184.23z" class="e"/><path d="M349.39 190.99c-1.02-0.14-0.76-0.45-1.9-0.21 0.02 0.83 1.14 0.55 1.69 0.84C349.17 191.33 349.29 191.15 349.39 190.99z" class="e"/><path d="M349.39 196.47c0.43-0.63 0.12-1.99 0.21-2.95 -1.13-0.42-2.32-0.77-3.38-1.27C345.57 194.63 346.73 196.33 349.39 196.47z" class="e"/><path d="M350.13 206.85c-0.09 0.04-0.19 0.11-0.29 0.17 0.24 0.06 0.37 0.15 0.43 0.26C350.25 207.12 350.22 206.97 350.13 206.85z" class="e"/><path d="M322.58 272.49c-0.1 3.78-1.51 7.36-1.9 10.14C321.77 279.94 323.75 276.07 322.58 272.49z" class="e"/><path d="M366.71 189.72c2.35 2.84 5.76-2.59 2.96-4.22C368.73 186.94 368.14 188.76 366.71 189.72z" class="e"/><path d="M350.01 208.56c0.11-0.27 0.18-0.53 0.23-0.77C350.14 208.05 349.98 208.33 350.01 208.56z" class="e"/><path d="M365.66 185.07c-0.14 1.33-0.5 3.04 0.63 3.59 0.98-1.21 1.52-2.84 2.32-4.23C367.57 183.83 366.36 184.65 365.66 185.07z" class="e"/><path d="M298.29 296.78c-3.27-0.36-8.01-0.66-10.14-1.27 -5.36-1.52-11.86-5.93-14.78-11.2 -2.15-3.88-3.58-9.12-3.8-13.93 -0.19-4.14 1.34-7.65 2.96-10.77 1.23-2.38 4.8-4.82 7.81-6.97 5.9-4.19 11.3-6.32 18.59-7.39 1.77 0.64 3.62 1.27 5.28 1.05 -4.41-1.52-9.57-2.19-15.21-1.05 -6.58 1.33-13.45 5.04-17.11 9.29 -1.98 2.3-4.51 7.26-5.28 10.14 -2.79 10.45 1.99 20.77 8.45 28.51 2.73 1.24 5.59 2.72 8.45 3.8 3.45 1.3 7.74 1.76 10.55 3.38 9.04 0.66 16.09-3.75 20.7-8.87 0.54-0.27-0.2-1.04 0.21-1.06 1.13-0.7 3.28-3.99 2.75-3.59C312.42 291.73 306.5 297.69 298.29 296.78z" class="e"/><path d="M355.94 193.73c1.51 0.03 2.73-0.22 3.59-0.84C358.85 190.72 355.65 190.8 355.94 193.73z" class="e"/><path d="M368.61 201.76c-2.21-2.71-3.84-6.01-5.91-8.87 -1.04 0.63-0.24 1.92-0.63 2.95 -0.55 1.45-2.72 2.89-4.44 2.74 -4.36-0.37-4.41-7.67-0.63-9.29 2.34 0.08 3.35 3.18 5.27 2.32 0.08-1.65-1.57-3.34-1.69-5.48 -1.38-0.38-1.9-1.91-3.16-2.11 -3.4-0.54-4.02 4.18-4.44 7.18 -1.22 8.73 0.42 15.94 1.69 23.65 0.98 5.94 1.57 11.69 2.11 16.68 0.95 8.81 3.3 16.93 5.07 22.38 2.87-2.24 8.78-2.14 13.31-2.32 -0.46-7.95-2.69-16.24-4.23-24.5 -1.56-8.39-1.28-16.54-3.16-24.5C367.66 201.93 368.82 202.52 368.61 201.76z" class="e"/><path d="M434.5 235.12c2.52 5.01 7.53 10.34 5.28 17.52 -4.77 5.31-6.46 13.66-15.2 14.57 -11.18 1.17-18.56-6.27-23.23-13.52 0.35 1.85 0.88 4 2.11 5.7 2.78 3.83 6.27 8.07 10.14 9.71 5.32 2.26 10.77 0.32 14.57-1.47 0.87-0.41 1.88-0.5 2.53-0.85 2.89-1.51 4.16-3.71 6.12-5.91 2.31-2.59 4.18-4.59 4.64-8.45C442.25 245.94 439.59 238.9 434.5 235.12z" class="e"/><path d="M404.51 235.12c1.06-0.89 2.24-1.38 3.16-2.33 1.4-1.43 2.36-3.39 4.44-3.8 -8.85-14.1-21.26-24.63-32.1-36.74 -3.46-2.73-6.44-5.95-9.71-8.88 2.12 2.04 2.33 5.17 0.42 7.61 -3.57 2.54-6.24-1.28-7.39-4.22 0.37-2.95 3.64-4.02 5.7-4.02 -1.21-2.42-5.66-0.8-6.97 0.43 -0.61 1.66 0.45 3.09 0.21 4.64 2.19 3.16 2.61 8.09 5.92 10.13 3.56 5.38 7.94 11.77 12.03 17.32 2.38 3.96 5.12 7.55 8.03 10.98 2.18 3.66 6.16 6.64 8.03 9.93 0.79-0.23 0.6 0.52 1.26 0.42 0.76 1.35 1.79 2.44 2.75 3.59C402.14 238.98 402.81 236.54 404.51 235.12z" class="e"/><path d="M405.78 258.14c5.53 5.84 17.56 11.85 25.34 5.07 1.6-1.39 2.72-3.78 4.22-5.91 2.25-3.19 4.96-7.26 3.38-11.61 -1.91-5.3-6.33-10.64-9.5-14.57 -3.53-1.71-8.55-2.3-12.88-1.48 -1.39 0.27-2.38 1.21-3.59 0.42 -2.36 1.96-5 4-7.39 6.12 -2.57 2.27-4.7 5.72-4.64 10.34 0.99 1.31 0.59 2.96 1.05 4.44C402.62 253.67 404.81 255.65 405.78 258.14z" class="e"/><path d="M352.78 216.75c0.98 5.52 0.82 11.37 2.74 16.68 -0.95-9.95-2.14-20.36-4.22-28.72C351.38 209.63 352.13 213.15 352.78 216.75z" class="e"/><path d="M357.42 197.32c1.1-0.52 3.8-1.45 2.53-2.95 -1.18 0.53-2.61 1.38-3.8 1.27C356.24 196.53 357.28 196.47 357.42 197.32z" class="e"/><path d="M357.85 257.08c0.46-0.66 2.19-1.18 1.89-1.9C358.92 255.62 358.33 256.3 357.85 257.08z" class="e"/><path d="M359.95 254.33c-0.52-4.08-1.81-9.06-2.95-12.67C357.82 245.55 356.54 252.74 359.95 254.33z" class="e"/><path d="M354.25 261.52c0.47-1.08 2.09-2.13 2.11-2.96C355.72 259.46 354.05 260.47 354.25 261.52z" class="e"/><path d="M363.76 291.08c-8.81-2.41-16.02-10.36-14.57-19.84 0.23-1.54 1.23-3.24 1.27-4.65 -2.33 4.1-4.91 9.02-4.02 15.62 0.58 4.27 4.12 9.37 6.97 11.19 2.61 1.68 7.57 3.23 11.4 3.8 6.34 0.95 12.32-0.38 17.11-2.95 1.97-2.33 4.91-4.8 5.5-7.81C381.39 290.72 372.93 293.65 363.76 291.08z" class="e"/><path d="M355.94 261.72c-1.36 1.58-2.78 3.18-3.38 4.23 -6.48 11.43 2.45 21.14 12.04 23.65 1.99 0.52 4.79 1.11 6.76 1.05 6.45-0.16 14.74-4.22 17.95-7.39 1.61-1.59 3.91-6.37 4.22-9.08 0.41-3.61-1.51-7.3-2.75-9.71 -1.51-2.95-2.05-5.47-4.44-7.61 -3.89-3.48-9.55-3.59-13.93-3.59C363.16 253.29 360.05 256.93 355.94 261.72z" class="e"/><path d="M427.11 228.36c-3.92-0.56-8.66-0.66-12.88 0 -1.81-1.78-3.66-3.52-4.65-6.12 -12.24-14.3-25.61-27.47-38.86-40.76 0.92-4.86-1.43-10.24-4.22-13.3 -7.64-5.29-22.71-4.82-27.03 4.02 -0.63 1.28-1.6 3.73-1.69 5.28 -0.2 3.36 1.49 6.79 2.32 8.87 0.59 1.46 0.77 2.27 1.69 3.16 -7.07 6.44-12.39 14.63-16.47 24.07 -6.6 10.79-13.68 21.1-21.11 31.04 -7.62-2.88-15.21-0.97-22.18 1.48 -3.51 1.23-6.5 3.16-9.08 5.49 -4.51 4.08-9.01 12.38-9.08 20.06 -0.04 4.82 2.12 8.69 3.59 12.03 0.52 1.16 0.64 2.59 1.05 3.38 0.39 0.73 1.44 1.54 2.11 2.53 2.11 3.09 4.45 6.43 8.45 6.97 3.34 2.83 8 2.75 12.25 4.02 1.2 0.36 2.2 1.08 3.38 1.27 7.46 1.18 17.25-4.2 21.11-9.51 0.41-0.55 0.47-1.35 0.85-1.9 0.42-0.6 1.25-0.88 1.69-1.48 0.89-1.2 1.9-3.16 2.96-4.85 5.45-8.79 2.4-20.42-2.75-29.15 4.78-7.16 9.91-14.88 14.99-21.75 1.8-2.43 3.14-5.2 4.86-7.61 0.92-1.28 2.19-2.41 3.17-3.8 1.98-2.84 3.7-5.86 5.49-8.66 0.5-0.78 2.25-2.93 2.94-4.6 -0.02-0.23 0.13-0.51 0.23-0.77 -0.05 0.23-0.12 0.49-0.23 0.77 0.23 2.33 0.51 4.6 0.87 6.71 1.07 6.45 2.39 14.61 3.59 21.54 1 5.81 1.35 12.14 3.16 18.37 -5.5 6.85-11.71 12.64-12.67 22.18 -0.99 9.86 5.28 16.65 13.3 19.84 2.22 0.89 7.21 1.69 9.5 1.69 9.12 0.02 15.59-2.26 19.64-8.65 0.78-1.24 1.31-3.11 2.32-4.65 1.98-3.01 4.89-7 5.28-10.98 0.52-5.23-2.63-9.6-4.22-12.88 -2.75-5.64-6.54-9.46-13.73-9.71 -1.35-4.16-1.23-8.64-1.9-13.09 -0.66-4.39-2.42-8.58-2.96-12.88 -0.88-7.03-1.63-15.81-2.74-22.59 2.61 3.02 5.29 5.97 6.97 9.93 4.01 4.73 7.52 9.77 11.4 14.57 3.9 4.82 8.28 9.21 12.04 14.15 -0.87 2.34-0.76 5.17-0.63 8.02 0.28 6.25 2.11 8.86 5.07 12.67 2.33 3 5.72 6.52 9.08 7.82 5.91 2.28 11.77-0.02 15.84-1.9 4.14-1.91 5.93-3.95 8.66-6.76 1.35-1.39 2.34-2.9 3.59-4.22C447.07 244.28 437.09 232.9 427.11 228.36zM366.71 189.72c1.43-0.96 2.02-2.77 2.96-4.22C372.47 187.13 369.06 192.55 366.71 189.72zM366.29 188.66c-1.13-0.55-0.78-2.26-0.63-3.59 0.7-0.42 1.91-1.24 2.95-0.64C367.81 185.82 367.27 187.46 366.29 188.66zM314.97 290.44c-0.41 0.02 0.33 0.79-0.21 1.06 -4.61 5.12-11.66 9.53-20.7 8.87 -2.81-1.63-7.1-2.08-10.55-3.38 -2.86-1.08-5.72-2.55-8.45-3.8 -6.46-7.74-11.24-18.07-8.45-28.51 0.77-2.87 3.3-7.84 5.28-10.14 3.66-4.25 10.52-7.96 17.11-9.29 5.64-1.13 10.79-0.46 15.21 1.05 -1.65 0.21-3.51-0.41-5.28-1.05 -7.29 1.07-12.69 3.2-18.59 7.39 -3.01 2.14-6.57 4.59-7.81 6.97 -1.62 3.12-3.15 6.63-2.96 10.77 0.22 4.82 1.65 10.06 3.8 13.93 2.92 5.27 9.42 9.68 14.78 11.2 2.13 0.6 6.87 0.91 10.14 1.27 8.21 0.91 14.13-5.05 19.43-9.92C318.25 286.45 316.1 289.75 314.97 290.44zM320.68 282.63c0.39-2.78 1.8-6.36 1.9-10.14C323.75 276.07 321.77 279.94 320.68 282.63zM321.73 272.08c-0.6 4.72-2.17 10.18-4.86 13.51 -2.34 2.91-6.62 6.29-9.71 7.81 -2.82 1.39-6.46 2-9.71 1.69 -5.93-0.57-12.87-2-17.53-5.7 -1.58-1.25-3.52-3.22-4.43-4.43 -1.3-1.72-2.06-4.85-2.96-7.81 -1.16-3.86-2.33-8.69-0.64-12.67 0.27-0.62 0.84-1.45 1.27-2.33 1.2-2.47 1.89-3.49 4.44-5.48 5.21-4.09 12.74-9.31 20.27-9.51 2.7-0.07 6.9 0.55 9.29 1.27 0.83 0.25 1.27 0.48 1.69 1.06 0.69-0.02 0.8-0.6 1.69-0.42 1.74 0.78 2.06 2.01 3.38 3.59 0.6 0.72 1.5 1.02 1.9 1.69 0.68 1.15 0.77 2.77 2.32 3.17C320.03 261.59 322.51 266.02 321.73 272.08zM349.84 207.02c-1.67 0.93-3.66 4.81-4.46 6.14 -2.9 4.79-6.1 9.16-9.08 13.72 -1.97 3.02-4.19 6.01-6.34 8.87 -2.24 2.99-3.97 6.29-6.55 8.87 -1.75 3.25-3.74 6.26-5.91 9.08 -1.59-1.19-2.33-3.06-3.8-4.44 -2.11-1.97-5.59-2-7.6-4.22 6.86-10.87 15.34-20.76 21.12-32.31 2.17-4.33 4.9-8.38 6.97-12.88 2.55-2.27 5.34-6.13 8.23-8.66 1.82-1.6 5.18-4.88 7.6-2.54 -1.03 1.34-4.47 0.48-5.29 2.54 -0.95 3.73 1.09 6.9 4.86 7.18C349.51 201.21 349.61 204.15 349.84 207.02c0.1-0.05 0.2-0.13 0.29-0.17 0.08 0.12 0.12 0.27 0.14 0.43C350.21 207.17 350.08 207.08 349.84 207.02zM349.61 193.52c-0.09 0.96 0.21 2.32-0.21 2.95 -2.67-0.14-3.82-1.84-3.16-4.22C347.29 192.75 348.48 193.1 349.61 193.52zM347.5 190.77c1.14-0.24 0.88 0.07 1.9 0.21 -0.11 0.17-0.22 0.34-0.21 0.63C348.64 191.32 347.52 191.6 347.5 190.77zM350.66 186.76c-2.71-1.67-5.87 0.22-7.6 1.48 -3.63-4.97-4.77-13.08-0.63-18.16 5.14-5.12 17.82-5.49 23.02-0.84 0.29 0.27 0.28 0.86 0.63 1.27 0.34 0.39 0.85 0.32 1.06 0.63 1.57 2.34 2.44 5.52 2.11 9.29 -3.92-0.49-8.54 0.01-8.87 3.8C357.47 181.53 351.41 182.31 350.66 186.76zM352.36 186.76c0.09 1.4-1.28 4.76-1.06 7.18C350.51 192.21 351.27 188.82 352.36 186.76zM352.78 216.75c-0.65-3.6-1.4-7.12-1.48-12.04 2.09 8.36 3.28 18.77 4.22 28.72C353.6 228.12 353.76 222.27 352.78 216.75zM357 241.67c1.14 3.61 2.43 8.59 2.95 12.67C356.54 252.74 357.82 245.55 357 241.67zM357.85 257.08c0.48-0.78 1.07-1.46 1.89-1.9C360.04 255.9 358.31 256.42 357.85 257.08zM356.36 258.56c-0.02 0.83-1.64 1.88-2.11 2.96C354.05 260.47 355.72 259.46 356.36 258.56zM381.91 294.25c-4.78 2.58-10.76 3.9-17.11 2.95 -3.84-0.57-8.79-2.13-11.4-3.8 -2.85-1.82-6.39-6.92-6.97-11.19 -0.89-6.6 1.68-11.52 4.02-15.62 -0.04 1.41-1.03 3.11-1.27 4.65 -1.44 9.49 5.77 17.44 14.57 19.84 9.17 2.57 17.63-0.36 23.65-4.64C386.82 289.44 383.89 291.92 381.91 294.25zM386.35 256.87c2.39 2.13 2.93 4.66 4.44 7.61 1.24 2.41 3.16 6.1 2.75 9.71 -0.31 2.71-2.61 7.48-4.22 9.08 -3.21 3.17-11.5 7.23-17.95 7.39 -1.98 0.05-4.77-0.53-6.76-1.05 -9.58-2.51-18.52-12.22-12.04-23.65 0.6-1.05 2.02-2.65 3.38-4.23 4.11-4.8 7.22-8.43 16.47-8.45C376.8 253.28 382.45 253.39 386.35 256.87zM370.93 227.1c1.54 8.25 3.76 16.54 4.23 24.5 -4.53 0.18-10.43 0.08-13.31 2.32 -1.77-5.45-4.11-13.57-5.07-22.38 -0.54-4.99-1.13-10.74-2.11-16.68 -1.27-7.71-2.91-14.92-1.69-23.65 0.42-3 1.03-7.72 4.44-7.18 1.26 0.2 1.79 1.73 3.16 2.11 0.12 2.15 1.77 3.84 1.69 5.48 -1.92 0.86-2.93-2.24-5.27-2.32 -3.78 1.62-3.73 8.92 0.63 9.29 1.72 0.15 3.88-1.29 4.44-2.74 0.39-1.03-0.41-2.32 0.63-2.95 2.07 2.86 3.7 6.16 5.91 8.87 0.21 0.77-0.95 0.18-0.84 0.84C369.66 210.56 369.37 218.71 370.93 227.1zM359.95 194.37c1.27 1.51-1.43 2.43-2.53 2.95 -0.14-0.84-1.18-0.79-1.27-1.69C357.34 195.74 358.77 194.9 359.95 194.37zM355.94 193.73c-0.29-2.93 2.91-3.02 3.59-0.84C358.68 193.51 357.45 193.76 355.94 193.73zM397.54 236.6c-0.66 0.1-0.48-0.65-1.26-0.42 -1.87-3.28-5.85-6.26-8.03-9.93 -2.91-3.43-5.65-7.02-8.03-10.98 -4.09-5.55-8.47-11.94-12.03-17.32 -3.3-2.05-3.73-6.97-5.92-10.13 0.24-1.55-0.81-2.98-0.21-4.64 1.31-1.23 5.76-2.85 6.97-0.43 -2.06 0-5.33 1.07-5.7 4.02 1.15 2.95 3.82 6.76 7.39 4.22 1.91-2.44 1.7-5.57-0.42-7.61 3.27 2.92 6.25 6.14 9.71 8.88 10.84 12.11 23.25 22.64 32.1 36.74 -2.07 0.41-3.04 2.36-4.44 3.8 -0.92 0.95-2.1 1.44-3.16 2.33 -1.7 1.41-2.37 3.86-4.22 5.06C399.32 239.04 398.3 237.95 397.54 236.6zM405.36 236.18c2.39-2.12 5.03-4.16 7.39-6.12 1.21 0.79 2.2-0.16 3.59-0.42 4.32-0.82 9.35-0.23 12.88 1.48 3.18 3.93 7.59 9.27 9.5 14.57 1.58 4.35-1.13 8.42-3.38 11.61 -1.5 2.14-2.62 4.52-4.22 5.91 -7.78 6.79-19.81 0.77-25.34-5.07 -0.97-2.48-3.16-4.47-4.02-7.18 -0.46-1.48-0.05-3.13-1.05-4.44C400.65 241.9 402.79 238.45 405.36 236.18zM436.82 260.88c-1.96 2.2-3.23 4.41-6.12 5.91 -0.65 0.34-1.66 0.43-2.53 0.85 -3.8 1.79-9.26 3.73-14.57 1.47 -3.86-1.64-7.36-5.88-10.14-9.71 -1.23-1.7-1.76-3.85-2.11-5.7 4.67 7.24 12.05 14.69 23.23 13.52 8.74-0.91 10.43-9.26 15.2-14.57 2.25-7.19-2.76-12.51-5.28-17.52 5.09 3.77 7.75 10.82 6.97 17.31C441 256.29 439.13 258.29 436.82 260.88z"/><path d="M314.97 290.44c-0.41 0.02 0.33 0.79-0.21 1.06 -4.61 5.12-11.66 9.53-20.7 8.87 -2.81-1.63-7.1-2.08-10.55-3.38 -2.86-1.08-5.72-2.55-8.45-3.8 -6.46-7.74-11.24-18.07-8.45-28.51 0.77-2.87 3.3-7.84 5.28-10.14 3.66-4.25 10.52-7.96 17.11-9.29 5.64-1.13 10.79-0.46 15.21 1.05 -1.65 0.21-3.51-0.41-5.28-1.05 -7.29 1.07-12.69 3.2-18.59 7.39 -3.01 2.14-6.57 4.59-7.81 6.97 -1.62 3.12-3.15 6.63-2.96 10.77 0.22 4.82 1.65 10.06 3.8 13.93 2.92 5.27 9.42 9.68 14.78 11.2 2.13 0.6 6.87 0.91 10.14 1.27 8.21 0.91 14.13-5.05 19.43-9.92C318.25 286.45 316.1 289.75 314.97 290.44z" class="f"/><path d="M352.36 186.76c0.09 1.4-1.28 4.76-1.06 7.18C350.51 192.21 351.27 188.82 352.36 186.76z" class="f"/><path d="M352.78 216.75c-0.65-3.6-1.4-7.12-1.48-12.04 2.09 8.36 3.28 18.77 4.22 28.72C353.6 228.12 353.76 222.27 352.78 216.75z" class="f"/><path d="M357 241.67c1.14 3.61 2.43 8.59 2.95 12.67C356.54 252.74 357.82 245.55 357 241.67z" class="f"/><path d="M357.85 257.08c0.48-0.78 1.07-1.46 1.89-1.9C360.04 255.9 358.31 256.42 357.85 257.08z" class="f"/><path d="M356.36 258.56c-0.02 0.83-1.64 1.88-2.11 2.96C354.05 260.47 355.72 259.46 356.36 258.56z" class="f"/><path d="M381.91 294.25c-4.78 2.58-10.76 3.9-17.11 2.95 -3.84-0.57-8.79-2.13-11.4-3.8 -2.85-1.82-6.39-6.92-6.97-11.19 -0.89-6.6 1.68-11.52 4.02-15.62 -0.04 1.41-1.03 3.11-1.27 4.65 -1.44 9.49 5.77 17.44 14.57 19.84 9.17 2.57 17.63-0.36 23.65-4.64C386.82 289.44 383.89 291.92 381.91 294.25z" class="f"/><path d="M436.82 260.88c-1.96 2.2-3.23 4.41-6.12 5.91 -0.65 0.34-1.66 0.43-2.53 0.85 -3.8 1.79-9.26 3.73-14.57 1.47 -3.86-1.64-7.36-5.88-10.14-9.71 -1.23-1.7-1.76-3.85-2.11-5.7 4.67 7.24 12.05 14.69 23.23 13.52 8.74-0.91 10.43-9.26 15.2-14.57 2.25-7.19-2.76-12.51-5.28-17.52 5.09 3.77 7.75 10.82 6.97 17.31C441 256.29 439.13 258.29 436.82 260.88z" class="f"/><path d="M13.57 228.95h9.07c4.49 0 6.6 0.7 8.41 1.89 2.42 1.63 4.05 4.4 4.05 7.83 0 3.43-1.63 6.2-4.05 7.83 -1.8 1.19-3.92 1.89-8.41 1.89h-5.81v13.11h-3.26V228.95zM16.83 245.45h4.71c3.48 0 4.66 0 6.51-0.84 2.55-1.19 3.78-3.48 3.78-5.94 0-2.46-1.23-4.75-3.78-5.94 -1.85-0.84-3.04-0.84-6.51-0.84h-4.71V245.45z" class="a"/><path d="M48.82 228.95h8.27c4.36 0 6.51 0.53 8.01 1.23 3.65 1.72 5.81 5.28 5.81 9.29 0 4.71-3.39 9.5-9.68 9.9l9.2 12.15h-4.09l-11.05-14.74c4.14 0 5.54-0.04 7-0.48 3.56-1.01 5.37-4 5.37-6.91 0-2.55-1.45-5.19-3.56-6.25 -1.94-1.01-3.61-1.23-6.34-1.23h-5.68v29.62h-3.26V228.95z" class="a"/><path d="M100.96 228.38c9.15 0 17.25 7.26 17.25 16.85 0 9.59-8.14 16.85-17.25 16.85 -9.24 0-17.21-7.53-17.21-16.68C83.75 235.16 92.29 228.38 100.96 228.38zM100.96 259.14c7.53 0 13.99-6.12 13.99-13.86 0-7.61-6.29-13.95-13.99-13.95 -7.35 0-13.95 5.99-13.95 14.08C87.01 252.85 93.39 259.14 100.96 259.14z" class="a"/><path d="M147.2 251.17c-0.04 2.64-0.09 4.18-0.84 6.21 -1.41 2.95-4.22 4.71-7.75 4.71 -3.96 0-8.54-2.51-8.85-8.32h3.21c0.26 3.52 2.9 5.37 5.68 5.37 5.32-0.04 5.28-5.02 5.28-7.97v-22.22h3.26V251.17z" class="a"/><path d="M163.22 228.95h17.82v2.95h-14.57v11.71h14.08v2.95h-14.08v12.01h14.57v2.95h-17.82V228.95z" class="a"/><path d="M227.07 252.98c-3.48 6.38-9.77 9.11-15.01 9.11 -9.11 0-17.03-7.17-17.03-16.81s7.7-16.85 16.99-16.85c8.36 0 13.64 5.85 14.92 8.89h-3.65c-3.56-5.33-9.33-5.94-11.31-5.94 -7.61 0-13.69 6.69-13.69 13.95 0 7.61 6.69 13.82 13.73 13.82 1.63 0 6.95-0.22 11.4-6.16H227.07z" class="a"/><path d="M246.07 231.9h-7.48v-2.95h18.17v2.95h-7.44v29.62h-3.26V231.9z" class="a"/></svg>
