<svg height="139" viewBox="0 0 139 139" width="139" xmlns="http://www.w3.org/2000/svg"><g fill="none" fill-rule="evenodd"><path d="m138.820826 70.1167629c.062719-5.848496-3.860923-10.8062572-9.231917-12.2714307 4.455628-3.3632326 6.267996-9.4395183 4.040606-14.8522918-2.104212-5.1132143-7.179689-8.0872469-12.389082-7.7462714 2.335596-4.6808959 1.585787-10.5248531-2.278526-14.4608225-3.869681-3.9416428-9.690165-4.7750755-14.38876-2.4855469.430561-5.2278184-2.447474-10.37819389-7.5079779-12.57694695-5.3613882-2.32895918-11.4525264-.60082041-14.872435 3.83157755-1.3354735-5.43546734-6.1948231-9.49199796-12.0283028-9.55412244-5.8648394-.06269184-10.8290041 3.9325653-12.2492337 9.38278367-3.3162236-4.55664694-9.4062317-6.44449388-14.8439004-4.21482041-5.1124879 2.09663061-8.09675 7.19849798-7.7639411 12.44248568-4.6545224-2.3964734-10.500998-1.684453-14.4545874 2.1834347-3.9377683 3.8528531-4.8073659 9.6715633-2.5763028 14.3958613-5.1947013-.4405449-10.32018501 2.4262591-12.52723379 7.4878449-2.32740244 5.338451-.66787804 11.4164387 3.66852643 14.8809428-5.36280082 1.3755327-9.35453049 6.228051-9.41696748 12.0484633-.062437 5.8516163 3.86431301 10.8116469 9.23926219 12.2742673-4.45958333 3.362949-6.27392886 9.4432061-4.04484349 14.8576817 2.10647154 5.1160513 7.18646954 8.0895163 12.39868694 7.7445693-2.3387032 4.682882-1.5886117 10.53081 2.278809 14.467631 3.8733536 3.942777 9.6980752 4.773373 14.3972358 2.477036-.4322561 5.23179 2.4483211 10.385853 7.5124979 12.583755 5.3664736 2.328676 11.4618496.593445 14.8783679-3.847746.0005651.002269.0011301.004822.0016951.007091.0014126.004539.0028252.009362.0039553.014184.0485935.196586.1014248.391186.159059.584084.0079105.026665.0177987.052763.0259918.079428.0519838.170204.1059452.339841.1649919.506641.0115833.032906.0251443.064394.0370102.096733.0581992.160275.1175284.319416.1816605.476571.0177988.043402.0381403.085953.0565041.129072.0613069.144673.1226138.289063.1887236.430616.0228841.048508.048311.095598.0717601.143539.0649797.134461.1296769.269206.1994594.40083.0505711.096166.1059451.189778.1590589.284525.0457683.081698.089559.16453.1370224.24481.0709126.119994.1463455.236867.2212134.354308.0336199.05248.0649797.106945.0991646.158857.103685.157155.2110427.31119.3212257.462955.007628.011064.0149735.022411.0228841.03319 1.7623618 2.416331 4.364374 4.177659 7.3791484 4.8511.0285345.006241.056504.014468.0850386.020708.1584939.034041.3189654.062692.479437.090776.0457683.008226.0904065.018439.1361748.025814.1265691.020992.2548333.036027.3825325.053047.0816484.01078.1621667.024396.2443801.033474.0889939.009928.1796829.015318.2695244.023261.1217662.011063.2435325.024112.3664288.031771.0652622.003972.131372.003972.1969167.007092.1480406.006525.2960813.014184.4455346.015602h.0019776.0008476c.0870162.000851.1729024-.002837.2596361-.003971.1279817-.001135.256246-.000568.3833801-.005957.1505833-.005958.2994716-.018156.4483598-.029502.0627195-.004823.125439-.006809.1875935-.012482.1997418-.018439.3975061-.042267.5947053-.069784.0107357-.001418.021754-.002269.0324898-.003971 4.9960894-.714574 9.0530813-4.394386 10.3258354-9.222225 3.3215914 4.5314 9.3952134 6.403645 14.8193211 4.179362 5.1119224-2.096631 8.0967504-7.198498 7.7630934-12.44277 4.654805 2.396757 10.501281 1.684453 14.454587-2.183718 3.938051-3.85257 4.807366-9.671563 2.576303-14.395578 5.194702.440261 10.320468-2.426259 12.527234-7.488412 2.327685-5.338451.668443-11.4158714-3.668244-14.8803755 5.362518-1.3755327 9.353966-6.2280511 9.416403-12.0490306" fill="#88d2d8"/><path d="m48.4164122 58.2533114c-.3726443-1.4260265 3.8535772.8688919 3.8535772.8688919 3.7371789-2.6061082 6.9485874.6717387 6.9485874.6717387 3.626996-2.2393183 4.6898374-.1679347 6.0580834.5602551 2.7622012-2.8276571 6.0255935-.473451 6.0255935-.473451 1.0063374-1.8214673 5.3870975-1.4027653 6.0044044-.6462081 1.7838334-1.9054347 5.4678984-.8947062 6.0527155-.4465021 3.043874-2.1579041 6.0301138-.0292183 6.0301138-.0292183 1.1860203-2.0498245 1.8988191-.6164225 1.6194065-.0558837 0 0-2.7359268 7.4041612-7.0892825 23.1250612-.5028862 1.1766776-1.2566504 1.8487-3.2673476 2.1868388-2.0078719.3355857-16.2420935 1.0629245-22.8575894.0544653-1.4227724-.3364368-2.092063-1.0084592-2.5116057-2.1020204-.4189776-1.0927102-4.6347459-15.1725592-6.8666565-23.7139674" fill="#fff"/><g fill="#88d2d8"><path d="m56.4980191 74.4062178-3.2083008-12.3568164c-.0350325-.1418367.048876-.2870775.1904187-.3236714.1421077-.0368776.2870406.0476571.3226382.1894939l3.2051931 12.356249c.0378577.1426877-.0466159.2884959-.1875935.3245224-.0223191.0051061-.0457683.0102123-.0661098.0102123-.118941 0-.2262987-.080847-.2562459-.1999898"/><path d="m61.5683549 77.4748271-2.3081911-15.0613591c-.0257093-.1730409.0904065-.3350184.2635915-.3639531.1740325-.0238286.3381768.0933286.3619085.2677878l2.3090386 15.0630612c.0274045.1727571-.091254.3395571-.2661341.363953-.0155386.0014184-.034185.0014184-.0505711.0014184-.1536911 0-.2864757-.1123347-.3096423-.2709082"/><path d="m66.3826425 80.6697563-1.028939-17.2504673c-.0115834-.2062306.1446504-.3804061.3523028-.3968592.2022846-.0070918.374622.1463755.389313.3528898l1.027809 17.2533041c.0115833.2019755-.1429553.3764347-.3477826.3931714h-.0226016c-.1957866 0-.3585183-.1548857-.3701016-.3520388"/><path d="m70.8669746 80.90495v-17.5077592c0-.2065143.1692297-.3750163.3749045-.3750163.202002 0 .3681239.168502.3681239.3750163v17.5077592c0 .2019755-.1661219.3710449-.3681239.3710449-.2056748 0-.3749045-.1690694-.3749045-.3710449"/><path d="m76.2842453 78.5859761c-.174315-.0136163-.306252-.1662326-.2952337-.3412592l1.0899634-15.8964938c.0115833-.1787143.1610366-.3131755.339872-.2998429.1731849.0161694.3039918.165098.293256.3406918l-1.0891158 15.9013164c-.0118659.1656653-.1500183.2955877-.3167053.2955877z"/><path d="m81.0037756 75.5049135c-.1457805-.0295021-.2429675-.1662327-.2169756-.3072184l2.2454715-13.1973408c.0231667-.1469429.1627318-.2397041.3034269-.2161592.1440853.0249633.2401423.1636796.2164105.3055163l-2.2412337 13.1959225c-.0217541.1307734-.1361748.2218326-.2618963.2218326-.0158212 0-.0319248 0-.0452033-.002553"/></g><g fill="#525252"><path d="m31.6818575 81.9071684c-2.6370447.9032163-7.7735467 1.5545306-8.9338577-1.8586286-1.0752724-3.1643776 2.1485671-5.7926122 4.8059532-6.7029204 2.6169858-.8964082 8.7332683-1.3054653 9.8709777 2.0452857 1.1108699 3.2676347-3.2506789 5.6626898-5.7430732 6.5162633zm-8.0848841-2.6103633c1.0467378 3.0821122 6.5968496 1.4112755 8.7598252.6703204 1.2569329-.4294816 4.9065305-2.1420184 4.3163455-3.8795184-.8436057-2.4827102-7.0531199-1.671404-8.9491138-1.0226428-1.4829492.5080592-4.801998 2.2461265-4.1270569 4.2318408z"/><path d="m35.1237461 86.2554004c-.8605569-1.4189347-4.4107073-.5523122-5.6249796-.1180082 1.0812052-.6098979 2.1570426-1.1900102 3.2198841-1.7888449 1.1871504-.6481938 2.384189-1.2779489 3.5710569-1.9261428.6469716-.3191327 1.3055264-.6186918 1.9005142-.9823612.2969289-.1815511.7794736-1.1922796.5879248-1.5102776-.0118658-.0184388-.0415304-.0258143-.0415304-.0258143-.409372-.3389898-6.3024635 3.1348755-7.1757338 3.6684653-1.5982175.9775388-3.1625325 2.0103939-4.7050935 3.0801266-.222626.1370143-.605441.3449469-.7760833.5262143-.1777053.210202-.0887114.6935816.0242967.8796714.0457683.0748898.0867338.1012714.1539736.0853857 1.2072094-.2774327 6.8369919-2.7967367 7.5605264-1.6027551.2381647.3917531-.2370345.7840735-.5161646.9551286-1.2083394.7378347-2.578563 1.1664653-3.7682561 1.8935204-.6690081.4087734-1.8530508 1.4390755-1.3097642 2.3354836.4412967.7270551 1.321065.624649 1.9719918.2272225.2226261-.1364469.263309-.238002.2873232-.5341571-.2039797.1248163-1.0150955.5948632-1.1964736.2961551-.2593536-.4294817.6023334-.9815103.8814635-1.151998 1.3569451-.8288939 2.8579756-1.210151 4.1595467-2.0052878.798685-.4879183 1.3380163-1.406453.7955772-2.3017265"/><path d="m52.0199024 96.9707402c.7902094-1.0161184 1.2614533-2.3664041.0601769-3.3082-1.5258923-1.1982367-4.5064817.6796816-5.7492886 1.6731061.1779878-.1926143.3254634-.3821081.4859349-.5889061.8444533-1.0844837 2.4076382-3.5192531.9148008-4.6902571-2.6749024-2.0991837-6.9454797 3.1757245-8.5482175 4.9146428.5387663-.7979735 4.2013598-6.1069224 4.2852683-6.4288918.1045326-.417851.0680874-1.2232-.292691-1.5054551l-.0169512-.013049c-.2500305.1083633-.6752236.6898939-.8495387.9142796l-.0940792.1202775c-1.326433 1.7054449-2.5333598 3.5039347-3.7572378 5.2896592-.4613557.6637959-3.5430874 5.2627102-3.5671017 5.5778715-.0231666.3140265.0319248 1.0234938.3068171 1.2388022.103685.080847.4232155.165665.562498.163963.3158577-.3350183.5932927-.727055.8919166-1.0751224 1.5225021-1.8850102 3.1297602-3.7022224 4.8062358-5.4658204.8260895-.8490347 3.50975-3.7637796 4.7957825-2.7553204.8919167.7003898-.2344918 2.3959061-.7300325 3.0333204-1.3933902 1.7908306-2.9805894 3.4035143-4.3745447 5.1943449-.3881829.4989816-.7904919 1.0155509-1.1789573 1.5150999-.3842277.530469-1.3648557 1.896074-.6449939 2.461718.1200711.094464.4811321.12737.6334106.108931l.0810833-.103541c.3514553-.417283.6317154-.918534.9662195-1.349434 1.2603232-1.61779 7.5082602-8.8647963 9.6517419-7.1834637.5317032.4181347.2666992 1.0419327-.0683699 1.471698-1.8225387 2.3422918-4.1889289 4.1756737-6.01062 6.5173977-.6704207.861233-1.9236809 2.79078-.7404857 3.719243.326876.255023.779191.277716 1.1091748.065812-.7447236-.640251.0064979-1.853806.4757642-2.456328 1.9832927-2.548806 4.6127093-4.5084227 6.5962845-7.0563778"/><path d="m55.9176659 102.125598c-.6218273-.263533-1.7208313 1.002218-1.9417622 1.525879-.2870407.684504-.5059939 1.374682-.7534817 2.076206-.7314452.615288-2.4703578 1.942596-3.4733049 1.517654-.5209675-.221549-.2861931-1.117958-.1260041-1.500066.4237805-1.007041 1.1312114-1.845863 1.5459512-2.833047.422933-1.007041.4692663-1.959616-.6738109-2.444698-.0610244-.025247-.1212013-.05021-.1808131-.07574.0067805.713722-.0822134 1.151146-.3528678 1.795936-.38112.90577-.9823232 1.71821-1.3544025 2.604123-.4833923 1.14831-.7215569 2.896873.6820041 3.491736 1.1026768.467494 2.8141849-.6811 3.5851829-1.446167-.3712317 1.218945-.7133638 2.425976-1.2041016 3.593576-.5670183 1.349718-1.5470813 2.950487-3.2515264 2.227971-1.1433598-.483947-1.8233862-2.124147-1.3416891-3.272173.1189411-.282256.5175773-.445368.5944228-.625784.0248618-.060706-.0183638-.126518-.0579167-.143823-.361626-.152616-.8639471.369343-.9916463.671739-.7531992 1.791966-.4345163 4.014547 1.5304126 4.847129 1.9852703.841375 3.92675-1.135261 4.6375711-2.82709.8472785-2.013798 1.0936362-4.233259 1.8324269-6.269184.5150345-.327075 1.2405467-.873714 1.4778638-1.437657.1522784-.362535.278565-1.281637-.1825081-1.47652"/><path d="m67.0944807 97.5244992c-3.9013232-.3585633-6.623689 6.5015118-6.9090346 9.6346858-.2974939 3.264514 1.263996 6.040826 4.7308029 6.358824 2.4926768.228925 4.0996524-1.818063 4.3112601-4.146171.0324899-.348351.0545265-.829178-.1149857-1.129871-.1302419-.252754-.5955529-.669186-.8772256-.695l-.0211891-.001419c-.1076402 2.140316-1.0961788 5.318878-3.7840772 5.072365-2.5133008-.231193-2.8749268-3.226785-2.6918537-5.228385.2260163-2.480725 2.5440956-9.4650492 5.6871342-9.1762696 1.4518719.1330428 1.5210894 2.4872486 1.4270102 3.5320186-.0957744 1.044202-1.0156606 3.461383-2.3175143 3.363516-.0652622.477423.3243334.754288.7370956.791449 1.7767703.163963 2.8774695-2.32442 3.010254-3.782502.2181057-2.3939204-.5435691-4.3509837-3.1876768-4.5932408"/><path d="m77.1491813 109.820808c-.2039797-1.67112-.0776931-3.337702-.2819553-5.008255-.0627195-.520541-.5387662-1.541198-1.1865853-1.462337-.0437907.00539-.1084879.013616-.124874.060139-.381685.464941-.3924208 8.107955-1.9265061 8.296598-.4319736.053047-.5379187-.638833-.5749289-.942647-.1912663-1.562474.1189411-3.163527-.0723252-4.725433-.0952093-.780953-.4661585-1.484179-1.188563-1.835934-.1409776-.070351-.3237683-.13588-.4972358-.114888-.0864512.010496-.167252.064394-.1570813.151481.0240143.195735.1344797.380407.1988943.548341.1333496.379555.207935.810455.2582236 1.222917.1960691 1.605591-.1073577 3.250614.0887114 4.856206.0598943.498698.2313841 1.182351.6659004 1.504036.361061.263249 1.2086219.379272 1.640313.326792 1.187998-.146092 1.6959695-4.436653 1.7925915-5.440006-.0158212.948888-.0714777 1.924725.0443557 2.879286.111313.911159.4961057 2.449804 1.7058577 2.300875.2811077-.034891.5432866-.220981.6870894-.48111-.6876545-.245945-.9958841-1.507441-1.0718821-2.136061"/><path d="m82.2262693 102.164206c1.014248-.108931 2.0838699 1.663177 2.3409634 2.498596.346935 1.126751.2726321 2.660573.012996 3.815975-.130807.612167-.7136464 2.417749-1.3168273 2.604406-.2912784.090492-1.1408171-.079996-1.4354857-.149496.4503373 1.759343.9631117 3.498262 1.4131666 5.25647.0714777.230343.4347988 1.559069.2472053 1.616087-.4161524.129356-1.1597459-.509193-1.2752967-.88421-.6749411-2.192796-1.2871626-4.40403-1.8522033-6.608457-.5415915-1.981459-1.0080325-3.940792-1.3775691-5.953455-.035315-.263533-.3297012-1.293267.0449207-1.409006.3740569-.116874 1.0552134.541249 1.1577683.875133.0909716.293034.1327846.576708.2020021.8757.147193-.778117.5528922-2.345129 1.3854796-2.603556.1658395-.051061.3099248-.026949.4528801.065813zm.9063252 7.678757c.6972602-.765351.1172459-4.428143-.1915488-5.430645-.1285467-.417-.2712195-.807051-.716754-.921088-.7351179.571886-1.3945204 2.720712-1.3179574 3.635276.040683.35289.1491708.707765.2313842 1.048457.1768577.722516.3398719 1.472549.5435691 2.210384.202002-.086521 1.3801118-.47487 1.4513069-.542384z"/><path d="m91.3171236 103.177175c.5752114.833717.500061 3.405784-.4879126 3.91668-1.0441951.540114-1.9753821-.796839-2.3743008-1.573821-.6687256-1.302061-1.7462582-5.022722-.0429431-5.9035281.7150589-.3704775 1.2283983.1994225 1.5278699.7826551.278565.543518.5740813 1.546871.1028374 2.061455.1099004.164814.3426971.142121.4780244.072053.9670671-.500683.723252-2.169818.313315-2.9663733-.4582479-.8930041-1.4377459-1.4180837-2.4056605-.9179673-.1350448.070351-.2602013.1597081-.3658639.2884959-.0774105.0397143-.1652744.0607061-.2514431.1293551-.3765996.2201306-.6554471.4879184-.9142357.8425102-1.1665265 1.7352304-.6517744 4.8369164.2455101 6.5854794.7280549 1.4178 2.4757256 2.579443 4.0236545 1.778065 1.4128841-.731026 1.7827033-3.062538 1.0944837-4.402328-.1398475-.272043-.5658882-.863786-.9433353-.692731"/><path d="m100.212248 99.4257639c.030229.0034041.127134.0936122.219801.2158755.331961.4326016.796707 1.3968086-.048594 2.0501086-.5865121.45331-1.4501767-.064962-1.9346991-.517988.0200589.922506-.0952094 2.169251-.7845589 2.702557-1.1560732.893004-2.4076383.012198-2.6740549-.333884-1.2069269-1.57609-.6986728-4.0653242 1.3323658-5.7165875-.6579898-1.1451898-1.2724715-2.1604571-1.4044085-2.3334979-.2791301-.3639531-.610809-.4385592-.8698801-.2385694-.5687134.4399775-.6930223 1.2802183-.694435 1.8881306.0700651.0558836.1534086.1296388.2206484.2158755.5571301.7270551.6017683 2.1820163.0491586 2.6086612-.3624736.2794185-.8136586.0496425-1.0919411-.3140265-.4777419-.623798-.9136707-3.4849286.8108333-4.8184776.6034635-.4657918 2.4918293-.1880755 2.9294533.3832429 1.4205122 1.8538061 2.6082276 4.1898571 3.3515386 5.1594527.1582114.2085.3525854.3892.5938576.203111.31049-.239988-.4028739-1.20618-.4028739-1.20618s.2480529.001702.3977889.0521959zm-3.6433823 3.2012551c.7410508-.573588 1.0252662-1.564743 1.1713292-2.449804-.2409898-.4206879-.5644756-.914847-.8848536-1.4399266-1.1394045 1.4872996-1.653874 3.1808306-1.1495752 3.8389526.1065101.139.465876.356862.8630996.050778z"/><path d="m108.091768 94.4999443c-1.87198.155453-3.778709-.0740388-5.670748-.0258143-.491303.0249633-1.169917.0280837-1.639183.1906286-.118376-1.1392327-.235904-2.2767633-.292974-3.4188327-.042943-.5704673-.089276-3.0282143.217824-3.3686224.04379-.0482245.088993-.0658123.133349-.1140368.043508-.0493591.086169-.128504.021189-.1869408-.112725-.1024061-.34976.094747-.42265.1758776-.7732583.8586796-.9255368 4.3158081-.9416404 5.5384408-.8467135-.9168327-1.6485061-1.8512531-2.4350427-2.8021265-.4246281-.5049388-.8094208-1.0887388-1.3086342-1.5429-.2099126-.1909123-1.1936484-.4663592-1.4278577-.2073654-.1895711.2110531.5150346 1.0575347.632563 1.2524184 1.3840671 1.8180633 2.9452744 3.472447 4.5361463 5.1254123.0087582.1540347.0384228 1.0649102.1189411 1.1383816.0480285.0436857.1240264.0243959.1675346-.0235449.0158211-.0161694.0446382-.0482245.0587642-.0649612.1830728-.0405653.3491948-.0944633.5472418-.150347.877791.9145633 1.73976 1.8455796 2.676315 2.6963164.258224.2340306 1.153248.5764244 1.445374.2521857.057917-.0643939-.057917-.2289245-.10651-.2737449-.715059-1.0617898-1.715746-1.9709633-2.592407-2.8858102.061025-.0034041.122332-.0062408.169513.0070918 1.187433.0178714 6.279861.4901878 6.950565-.2553061.335916-.3724633-.141261-.3645204.164992-.7040776.07402-.0814143.396658-.406504.315292-.4799755-.080518-.0734714-1.119345.1018388-1.317957.1276531"/><path d="m109.008914 85.7909418c1.273884.7991082 2.457926 2.6500776 1.546516 4.1149674-.380272.6113163-1.557817 1.0583857-2.231628 1.1508632-.93825.1063776-1.915205-.2226836-2.690441-.7091836-.16697-.1041082-.332244-.2082164-.468701-.3194164-.027122.0851021-.06159.3472164-.108488.4215388-.057069.0927612-.350043.192047-.442992.1336102-.091537-.057302.037858-.8008102.057917-.9168326-1.359206-1.0331388-3.513706-3.4684755-2.393795-5.2658306.75998-1.2234837 2.04573-1.2674531 3.190502-.5491919.313597.1965857 1.717158 1.2839061 1.785528 1.5848837-.003955.0482245-1.439723 2.8075163-1.610648 3.1643776.191831.1460918.376034.2623979.561085.3772857.607984.3826755 2.722366 1.6064428 3.276106.7162755.760827-1.2229164-.567301-3.7067612-1.668-4.3716919.238165-.1341775.975825.3290613 1.197039.4683449zm-3.921948 2.3834245c.255399-.7409551.548937-1.4592163.861122-2.1661306-.572951-.5653612-1.145337-1.1307224-1.828754-1.5596367-.257093-.1619776-.841063-.5023857-1.060298-.1506306-.62324 1.0010836 1.284902 3.255153 2.02793 3.8763979z"/><path d="m113.379108 79.6685876c-2.584496-1.0439184-4.08694 2.5896551-6.086618 1.7814693-1.048998-.4232408-1.136297-1.4949591-.754895-2.4475347.138435-.3446632.353151-.7060632.721275-.863502.233927.3537408.531703.6623776.935707.8260571.646689.2604123 1.677606.2056633 1.969732-.5239449.259636-.6490448-.559673-1.2385183-1.064254-1.4427632-.606006-.2442429-1.330106-.2544551-1.935265-.0280837-.094361-.1789979-.177705-.3784204-.262743-.5764245-.020059-.0082265-.020059-.0082265-.039836-.0167367-.060742-.0241123-.25116.0399979-.274892.1012714-.032207.0814143.156234.6050755.192396.6896102-.551197.3199837-.975542.8549919-1.219075 1.4634714-.601768 1.5000654-.030795 3.3561409 1.524197 3.9839103 2.686203 1.0839163 4.357311-2.2691041 5.729795-1.7145225.585665.2368673.737943.9103082.519272 1.4580816-.373209.9324347-1.558947 1.3724123-2.467532 1.0056225-.241838-.0975837-.334787-.276298-.24551-.499549l.023731-.0604224c-.128546-.0289347-.286758.0723367-.335069.1934653-.211325.5276326.374057 1.1173898.817897 1.2966714 1.373048.5545816 2.805991-.3279265 3.333457-1.6458735.470961-1.1761102.149171-2.4829939-1.08177-2.9802734"/><path d="m100.787346 69.384318c-.081931.072053-.365864.2564408-.383945.3421102-.050854.2354489.382533.5066408.538766.6079122 2.479964 1.6260163 7.670145 3.3862102 10.608073 4.015398.255681.0544653.423781-.1100653.473505-.345798l.014408-.0632592c-.108488-.2243857-.343262-.2748796-.551197-.3423939-3.47048-1.3684408-7.024585-2.7561714-10.184293-4.7515306-.07628-.0609898-.249748-.1875081-.333939-.2059469-.235057-.0499265-.574364.0785775-.628325.3350184-.045486.2138898.3071.3338836.446947.4084898"/><path d="m115.463514 75.0990618c-.022884.1063776-.580014.0093613-.665335-.0087938-.276588-.0595715-1.112283-.2158756-1.028939-.6002531.048311-.2351653.41587-.1787143.585382-.1426878.277435.0590041 1.190823.3667898 1.108892.7517347"/><path d="m114.248112 73.6985659c-.532551-.1143204-.816766.0709184-.904065.5886225l-.036445.1704877c-.10199-.0439694-.236752-.139851-.343828-.1628285-.212455-.0451041-.350607.3943061-.382815.5440857-.017516.0856694-.014691.1750265-.0113.2652347.024861.4076387 1.050975.9185347 1.377851 1.0549816l.438189.4510408c.150584-.0794286.305405-.1801326.418413-.2899143.571256.0334735 1.318522-.030353 1.464303-.7140061.195504-.9188184-1.296204-1.752251-2.020303-1.9077041"/></g><g fill="#fefefe"><path d="m58.8935089 41.0553237c-.0573516-.0306368-.146063-.0712021-.2737622-.1041082-.167817-.0510612-.4000487-.0916265-.7003678-.1146041.4237804.165098.7314451.2258041.9037825.2246694.027687 0 .0491585 0 .0703475-.001702z"/><path d="m65.1958593 51.6476627c-.0175162 0-.0313597.0022693-.0404004.0031204.0437907.1097816.5701261.5730204 1.9536281 1.3301449-.2748923-.7466286-1.5323903-1.3463143-1.9132277-1.3332653"/><path d="m67.4701197 53.0144298c.3870529.2087837.8077256.4212551 1.2518476.6317408 3.2888191 1.2785163 6.6087154 1.9267102 9.8670223 1.9267102 6.080685 0 9.8071281-2.2140714 9.9223964-2.2847061l.0031077-.0025531c1.5128963-1.0220755 2.279374-2.046704 2.2782439-3.0455183.0113008-1.4648898-1.6431382-3.0503409-4.9169837-4.7140857-.3517378-.1812674-.7017805-.3492021-1.069622-.5120307-.202002.0456715-.3932683.066947-.5831219.066947-.8116809-.0266653-1.4213598-.3182817-1.4874696-.7091837l-.0028252-.0170204.0011301-.0173041c.0076281-.099002.0658273-.3290612.4483598-.3290612.3449573.0005673.9060427.1673673 1.6691301.4958612.8794857-.2263714 2.1751239-.7134388 3.2311849-1.419502 1.3498821-.9023653 2.029626-1.9389082 2.0200203-3.0809776 0-.5784102-.17488-1.1973857-.5201199-1.8416081-2.1528048-3.9901511-9.2499979-4.222196-9.5508821-4.2301388l-.1223313-.0031204-.0022601-.0181551c-.0290996-.0045388-.0646972-.0099286-.1062277-.0164531-4.1310122-.6337265-6.3417337-1.6819-6.3937175-3.031051 0-.0266653.0014126-.0473735.0025427-.0652449l.0016951-.0314878c.1991769-2.1159204 3.3713151-2.6327734 6.3527521-3.0177183-2.2813517-.9633551-4.4304838-1.4515572-6.3954126-1.4515572-4.9325224 0-6.928811 2.9391408-7.4232216 3.8400878-.1220488.221549-.1839207.4167163-.1839207.5812469 0 .165949.0737378.3128919.2195183.4379919h.055939c.152561-.0042551.2997541-.0042551.4398842-.0042551l.5178597.0124816c1.4349207.0329061 1.8683069.0428347 2.0180427.4116102l.0209065.0519122-.0197764.052196c-.124874.3310469-.520685.350904-1.0221586.3764347-.0904065.0045387-.1858983.0093612-.285628.0161693-.5890549-.0048224-1.3795468-.0839673-1.8962764-.4283469-7.0906952.1279367-9.4178151 2.448102-10.4122866 3.4401082-.500061.5018183-.7871016 1.1885918-.7871016 1.8838755 0 1.1375306.7517865 2.2356306 2.1163597 3.0914734.249748.1557368.4992134.2961551.7416159.4175674 1.2179451.0343245 1.7084004.1886428 1.8072825.5667796l.0073455.0289347-.0048028.029502c-.0452033.2819714-.3014492.2938857-.4390366.3004102-.221496-.0116306-.6896321-.0575857-1.4849268-.4422469-.0175163.0002837-.03475.0011347-.0522663.001702-.0299472.0014184-.0598943.0025531-.0912541.0028368-1.2258557.0260979-3.5323516.6663489-5.5648028 1.8393387-1.3484695.7778327-3.6077846 2.4126429-3.5882907 4.6193388 0 .2726102.0322073.5367102.0985996.8090367.5627805 2.4359041 2.8260508 3.8775327 4.6254228 4.6584858 2.056748.8924367 4.670061 1.4246081 6.9943557 1.4246081h.0155386c3.1989776 0 5.8354573-.8002428 6.9022541-1.1786632-1.4919899-.8263409-1.8383598-1.194549-1.883563-1.4827613l-.0022602-.0144673.000565-.0141837c.0087582-.1920469.1644269-.3208347.3873354-.3208347.5828394.0184388 2.0098496.680249 2.2742886 1.708849z"/><path d="m68.6015571 31.6301024c-.0731728-.0209918-.187876-.0436857-.3432622-.0621244-.3582358-.0425511-.9283618-.0737551-1.7815732-.0737551-.0590467 0-.125439.000851-.1887235.000851.3986361.1648143.9277967.2334632 1.4086463.2334632.3845102.0051062.7424634-.0499265.9049126-.0984347"/><path d="m83.0878998 44.3614812c.0293821.0360266.1135732.1338939.2876057.2005572.2096301.0967326.5091016.1750265.847561.1750265.0847561 0 .1734674-.0045388.264439-.0158857-.6882195-.2768653-1.1052195-.3724633-1.3052439-.3710449-.0437907 0-.0771281.0048224-.0943618.0113469"/></g><path d="m75.5216665 48.9099584h3.0732561l-1.8770651-1.8852939.3879004-.3892 1.9646464 1.9732326v-4.6616061h.5480894v4.6582021l1.9612561-1.9701123.3876179.3894837-1.8779126 1.8852939h3.1611199v.5506102h-3.3323272l2.0494024 2.0591857-.3881829.3874979-1.9609736-1.9692612v4.2312735h-.5480894v-4.2360959l-1.9669065 1.9743673-.3867704-.3880653 2.0499675-2.058902h-3.2450284z" fill="#88d2d8"/></g></svg>